<?xml version="1.0" encoding="utf-8"?>
<!-- Generator: Adobe Illustrator 16.0.3, SVG Export Plug-In . SVG Version: 6.00 Build 0)  -->
<!DOCTYPE svg PUBLIC "-//W3C//DTD SVG 1.1//EN" "http://www.w3.org/Graphics/SVG/1.1/DTD/svg11.dtd">
<svg version="1.1" id="Layer_1" xmlns="http://www.w3.org/2000/svg" xmlns:xlink="http://www.w3.org/1999/xlink" x="0px" y="0px"
	 width="32px" height="32px" viewBox="0 0 32 32" enable-background="new 0 0 32 32" xml:space="preserve">
<g>
	<path d="M21.33,8.719c1.734,0,3.139,1.404,3.139,3.137c0,1.734-1.404,3.141-3.139,3.141H11.004c-1.734,0-3.139-1.406-3.139-3.141
		c0-1.732,1.404-3.137,3.139-3.137H21.33"/>
	<path d="M19.613,7.494c0,0.367-0.297,0.664-0.664,0.664h-5.563c-0.367,0-0.666-0.297-0.666-0.664V1.93
		c0-0.367,0.299-0.664,0.666-0.664h5.563c0.367,0,0.664,0.297,0.664,0.664V7.494z"/>
	<path d="M7.32,12.186l-6.322,6.326c-0.902,0.9-0.902,2.359,0,3.262l8.287,8.285c0.449,0.451,1.041,0.678,1.631,0.678
		s1.18-0.227,1.631-0.678c0.902-0.9,0.902-2.361,0-3.262l-6.652-6.656l4.621-4.621C8.816,15.293,7.477,13.91,7.32,12.186z"/>
	<path d="M31.004,18.512l-6.029-6.029c-0.289,1.684-1.719,2.979-3.465,3.063l4.598,4.596l-6.654,6.656
		c-0.902,0.9-0.902,2.361,0,3.262c0.451,0.451,1.043,0.678,1.633,0.678s1.182-0.227,1.631-0.678l8.287-8.285
		C31.904,20.871,31.904,19.412,31.004,18.512z"/>
</g>
</svg>
